Coordinates
version=1
nRows=54
nColumns=12
inDegrees=yes

Units are S.I. units (second, meters, Newtons, ...)
Angles are in degrees

endheader
time	SC_y	SC_z	SC_x	AC_y	AC_z	AC_x	GH_y	GH_z	GH_yy	EL_x	PS_y
       0.0              -35.04          7.483          82.88          34.76         -3.739         0.9786         -100.9          48.84         -45.06          50.05          60.71
   0.03604              -35.04          7.487          82.87          34.76         -3.742         0.9802         -100.9          48.84         -45.03          50.04           60.7
   0.07208              -35.04          7.491          82.87          34.77         -3.744         0.9818         -100.9          48.85          -45.0          50.04           60.7
    0.1081              -35.04          7.495          82.86          34.77         -3.747         0.9835         -100.9          48.85         -44.97          50.04          60.69
    0.1442              -35.03            7.5          82.85          34.77          -3.75         0.9854         -100.9          48.86         -44.93          50.04          60.68
    0.1802              -35.03          7.504          82.85          34.78         -3.753         0.9874         -100.9          48.86          -44.9          50.04          60.67
    0.2162              -35.03          7.509          82.84          34.78         -3.756         0.9895         -100.9          48.87         -44.86          50.03          60.66
    0.2523              -35.02          7.515          82.83          34.79         -3.759         0.9917         -100.9          48.88         -44.82          50.03          60.65
    0.2883              -35.02           7.52          82.82           34.8         -3.763         0.9941         -100.9          48.89         -44.77          50.03          60.64
    0.3244              -35.02          7.527          82.81           34.8         -3.767         0.9967         -100.9          48.89         -44.72          50.03          60.62
    0.3604              -35.01          7.533           82.8          34.81         -3.771         0.9995         -100.9           48.9         -44.67          50.02          60.61
    0.3965              -35.01           7.54          82.79          34.82         -3.776          1.002         -100.9          48.91         -44.62          50.02           60.6
    0.4325               -35.0          7.548          82.78          34.82          -3.78          1.006         -100.9          48.92         -44.56          50.02          60.58
    0.4685               -35.0          7.556          82.77          34.83         -3.786          1.009         -100.9          48.93          -44.5          50.01          60.56
    0.5046              -34.99          7.565          82.76          34.84         -3.791          1.013         -100.9          48.94         -44.43          50.01          60.54
    0.5406              -34.99          7.575          82.74          34.85         -3.798          1.017         -100.9          48.96         -44.35          50.01          60.52
    0.5767              -34.98          7.586          82.73          34.86         -3.804          1.021         -100.9          48.97         -44.27           50.0           60.5
    0.6127              -34.97          7.597          82.71          34.87         -3.812          1.026         -100.9          48.98         -44.18           50.0          60.48
    0.6487              -34.96           7.61          82.69          34.89          -3.82          1.032         -100.9           49.0         -44.08          49.99          60.45
    0.6848              -34.95          7.624          82.67           34.9         -3.829          1.037         -100.9          49.02         -43.98          49.98          60.42
    0.7208              -34.94          7.639          82.65          34.92         -3.838          1.044         -100.9          49.04         -43.86          49.98          60.39
    0.7569              -34.93          7.656          82.63          34.93         -3.849          1.051         -100.9          49.06         -43.73          49.97          60.36
    0.7929              -34.92          7.674           82.6          34.95         -3.861          1.058         -100.9          49.08         -43.59          49.96          60.32
    0.8289              -34.91          7.695          82.57          34.97         -3.874          1.067         -100.9          49.11         -43.43          49.95          60.28
     0.865              -34.89          7.717          82.54           35.0         -3.888          1.076         -100.9          49.14         -43.26          49.94          60.23
     0.901              -34.88          7.743           82.5          35.02         -3.904          1.087         -100.9          49.17         -43.06          49.93          60.18
    0.9371              -34.86          7.771          82.46          35.05         -3.922          1.099         -100.9          49.21         -42.84          49.92          60.12
    0.9731              -34.84          7.803          82.42          35.08         -3.943          1.112         -101.0          49.25          -42.6          49.91          60.06
     1.009              -34.82          7.839          82.37          35.12         -3.966          1.127         -101.0           49.3         -42.32          49.89          59.98
     1.045              -34.79           7.88          82.31          35.16         -3.992          1.145         -101.0          49.35          -42.0          49.87           59.9
     1.081              -34.76          7.927          82.24          35.21         -4.022          1.164         -101.0          49.41         -41.64          49.85           59.8
     1.117              -34.72          7.981          82.16          35.27         -4.056          1.187         -101.0          49.48         -41.23          49.83          59.69
     1.153              -34.68          8.043          82.08          35.33         -4.095          1.213         -101.0          49.56         -40.75           49.8          59.57
     1.189              -34.64          8.115          81.97           35.4         -4.141          1.243         -101.1          49.65          -40.2          49.77          59.42
     1.225              -34.58          8.199          81.85          35.49         -4.195          1.278         -101.1          49.76         -39.55          49.74          59.24
     1.261              -34.52          8.299          81.71          35.59         -4.258           1.32         -101.1          49.89         -38.79          49.69          59.04
     1.297              -34.44          8.417          81.54          35.71         -4.333          1.369         -101.2          50.04         -37.88          49.64           58.8
     1.334              -34.35          8.558          81.34          35.86         -4.423          1.428         -101.2          50.22         -36.79          49.58          58.51
      1.37              -34.24           8.73          81.09          36.03         -4.532            1.5         -101.3          50.44         -35.47          49.51          58.16
     1.406              -34.11          8.939          80.79          36.24         -4.665          1.587         -101.3          50.71         -33.86          49.42          57.73
     1.442              -33.94          9.197          80.42          36.51          -4.83          1.695         -101.4          51.04         -31.88          49.31           57.2
     1.478              -33.74          9.519          79.96          36.84         -5.035           1.83         -101.5          51.46          -29.4          49.17          56.54
     1.514              -33.47          9.925          79.38          37.25         -5.293            2.0         -101.6          51.98         -26.28          48.99          55.71
      1.55              -33.14          10.44          78.64          37.78         -5.621          2.215         -101.8          52.64         -22.32          48.77          54.65
     1.586              -32.72           11.1           77.7          38.45         -6.041          2.492         -102.0          53.49         -17.24          48.49           53.3
     1.622              -32.17          11.95          76.49          39.32          -6.58          2.846         -102.3          54.58         -10.72          48.12          51.56
     1.658              -31.48          13.03          74.94          40.42         -7.268          3.298         -102.6          55.97         -2.403          47.65          49.34
     1.694               -30.6          14.39          72.99          41.81         -8.134          3.867         -103.0          57.73           8.06          47.07          46.55
      1.73              -29.54          16.05          70.62           43.5         -9.189          4.561         -103.6          59.86          20.81          46.35          43.15
     1.766               -28.3          17.97          67.86          45.46         -10.41          5.365         -104.2          62.33          35.59          45.52          39.21
     1.802              -26.97          20.05          64.89          47.59         -11.74          6.235         -104.8          65.01          51.59          44.63          34.94
     1.838              -25.63          22.13          61.91          49.71         -13.06          7.105         -105.5          67.69           67.6          43.73          30.68
     1.874              -24.39          24.06          59.16          51.67         -14.28          7.909         -106.1          70.16          82.38           42.9          26.74
      1.91              -23.33          25.71          56.78          53.37         -15.34          8.603         -106.6          72.29          95.13          42.18          23.34
